<svg width="32" height="33" fill="none" xmlns="http://www.w3.org/2000/svg"><path d="M23 29.4a6 6 0 1 0 0-12 6 6 0 0 0 0 12Z" fill="#02C82B"/><path d="M12 17.8H6a2.7 2.7 0 0 0-2.7 2.6v6c0 1.5 1.2 2.7 2.7 2.7h6c1.5 0 2.7-1.2 2.7-2.7v-6c0-1.4-1.2-2.6-2.7-2.6Z" fill="#FFCD00"/><path d="M12 3.8H6a2.7 2.7 0 0 0-2.7 2.6v6c0 1.5 1.2 2.7 2.7 2.7h6c1.5 0 2.7-1.2 2.7-2.7v-6c0-1.4-1.2-2.6-2.7-2.6Z" fill="#6DDCFF"/><path d="M26 3.8h-6a2.7 2.7 0 0 0-2.7 2.6v6c0 1.5 1.2 2.7 2.7 2.7h6c1.5 0 2.7-1.2 2.7-2.7v-6c0-1.4-1.2-2.6-2.7-2.6Z" fill="#0072FF"/></svg>